<svg id="svg" version="1.1" xmlns="http://www.w3.org/2000/svg" xmlns:xlink="http://www.w3.org/1999/xlink" width="400" height="120" viewBox="0, 0, 400,120"><g id="svgg"><path id="path0" d="M13.500 80.250 L 13.500 91.167 19.250 91.167 L 25.000 91.167 25.000 80.250 L 25.000 69.333 19.250 69.333 L 13.500 69.333 13.500 80.250 M41.539 78.292 C 41.596 87.242,41.597 87.251,41.993 88.333 C 43.231 91.715,45.840 94.201,48.800 94.816 C 49.971 95.060,58.696 95.060,59.867 94.816 C 62.837 94.199,65.444 91.715,66.625 88.380 L 67.083 87.083 67.132 78.208 L 67.180 69.333 61.340 69.333 L 55.500 69.333 55.500 77.333 L 55.500 85.333 54.333 85.333 L 53.167 85.333 53.167 77.333 L 53.167 69.333 47.324 69.333 L 41.481 69.333 41.539 78.292 M70.833 79.500 L 70.833 89.667 76.582 89.667 L 82.330 89.667 82.374 81.077 L 82.417 72.487 83.389 76.702 C 83.924 79.020,84.583 81.854,84.855 83.000 C 85.126 84.146,85.467 85.608,85.613 86.250 C 85.759 86.892,86.001 87.904,86.152 88.500 L 86.425 89.583 91.379 89.627 L 96.333 89.672 96.333 79.502 L 96.333 69.333 83.583 69.333 L 70.833 69.333 70.833 79.500 M100.367 76.875 L 100.417 84.417 100.878 85.721 C 101.909 88.636,103.778 90.698,106.390 91.805 L 107.417 92.240 114.042 92.295 L 120.667 92.351 120.667 87.509 L 120.667 82.667 116.333 82.667 L 112.000 82.667 112.000 76.000 L 112.000 69.333 106.159 69.333 L 100.318 69.333 100.367 76.875 M124.667 79.500 L 124.667 89.667 130.500 89.667 L 136.333 89.667 136.333 79.500 L 136.333 69.333 130.500 69.333 L 124.667 69.333 124.667 79.500 M138.667 81.833 L 138.667 94.333 144.417 94.333 L 150.167 94.333 150.167 81.833 L 150.167 69.333 144.417 69.333 L 138.667 69.333 138.667 81.833 M175.867 76.875 L 175.917 84.417 176.378 85.721 C 177.409 88.636,179.278 90.698,181.890 91.805 L 182.917 92.240 189.542 92.295 L 196.167 92.351 196.167 87.509 L 196.167 82.667 191.833 82.667 L 187.500 82.667 187.500 76.000 L 187.500 69.333 181.659 69.333 L 175.818 69.333 175.867 76.875 M200.167 79.500 L 200.167 89.667 206.000 89.667 L 211.833 89.667 211.833 79.500 L 211.833 69.333 206.000 69.333 L 200.167 69.333 200.167 79.500 M214.167 81.833 L 214.167 94.333 219.917 94.333 L 225.667 94.333 225.667 81.833 L 225.667 69.333 219.917 69.333 L 214.167 69.333 214.167 81.833 M230.500 75.238 C 230.500 84.007,231.023 86.066,233.893 88.594 C 236.085 90.525,237.406 90.833,243.488 90.833 C 251.189 90.833,253.783 89.419,255.625 84.213 L 256.083 82.917 256.134 76.125 L 256.184 69.333 250.425 69.333 L 244.667 69.333 244.667 75.250 L 244.667 81.167 243.417 81.167 L 242.167 81.167 242.167 75.250 L 242.167 69.333 236.333 69.333 L 230.500 69.333 230.500 75.238 M261.416 69.542 C 261.456 69.656,261.603 71.175,261.744 72.917 C 261.885 74.658,262.109 77.358,262.243 78.917 C 262.377 80.475,262.602 83.100,262.744 84.750 C 262.886 86.400,263.081 88.800,263.178 90.083 C 263.275 91.367,263.388 92.585,263.430 92.792 L 263.506 93.167 269.829 93.167 L 276.152 93.167 276.236 92.625 C 276.335 91.993,276.538 90.351,277.003 86.417 C 277.187 84.858,277.447 82.683,277.579 81.583 C 277.712 80.483,277.939 78.571,278.084 77.333 C 278.376 74.845,278.660 72.785,278.719 72.726 C 278.739 72.705,279.300 75.772,279.965 79.542 C 280.629 83.311,281.201 86.424,281.236 86.458 C 281.270 86.492,284.150 86.565,287.635 86.620 L 293.972 86.719 294.069 85.984 C 294.122 85.581,294.243 84.387,294.338 83.333 C 294.433 82.279,294.619 80.292,294.751 78.917 C 294.884 77.542,295.107 75.179,295.248 73.667 C 295.388 72.154,295.550 70.560,295.607 70.125 L 295.710 69.333 278.527 69.333 C 264.853 69.333,261.359 69.376,261.416 69.542 M303.500 79.667 L 303.500 90.000 310.782 90.000 L 318.064 90.000 319.240 89.306 C 325.455 85.639,329.167 78.576,329.167 70.418 L 329.167 69.333 323.440 69.333 L 317.714 69.333 317.616 71.958 C 317.487 75.428,316.983 77.368,315.663 79.470 L 315.173 80.250 315.170 74.792 L 315.167 69.333 309.333 69.333 L 303.500 69.333 303.500 79.667 M333.667 79.250 L 333.667 89.167 337.458 89.166 C 339.544 89.166,344.119 89.117,347.625 89.056 L 354.000 88.946 354.000 84.140 L 354.000 79.333 349.667 79.333 L 345.333 79.333 345.333 74.333 L 345.333 69.333 339.500 69.333 L 333.667 69.333 333.667 79.250 M358.500 76.917 L 358.500 84.500 364.250 84.500 L 370.000 84.500 370.000 76.917 L 370.000 69.333 364.250 69.333 L 358.500 69.333 358.500 76.917 M371.000 69.468 C 371.000 69.596,374.737 88.493,374.920 89.292 L 375.006 89.667 380.806 89.667 L 386.606 89.667 385.822 85.792 C 385.391 83.660,384.504 79.254,383.850 76.000 C 383.197 72.746,382.624 69.915,382.578 69.708 L 382.494 69.333 376.747 69.333 C 373.586 69.333,371.000 69.394,371.000 69.468 " stroke="none" fill="#fb0404" fill-rule="evenodd"></path><path id="path1" d="M123.955 21.953 C 122.201 22.217,121.676 23.697,121.671 28.394 L 121.667 31.872 121.208 31.739 C 120.427 31.512,110.246 31.457,108.583 31.670 C 104.905 32.142,102.091 33.698,100.082 36.371 L 99.333 37.366 99.333 33.364 C 99.333 26.546,99.421 26.607,89.833 26.697 C 82.222 26.767,81.500 27.138,81.500 30.966 L 81.500 31.750 76.329 31.697 C 68.356 31.616,67.667 31.981,67.667 36.284 C 67.667 37.281,67.647 37.335,67.344 37.173 C 67.141 37.064,65.043 37.000,61.678 37.000 L 56.333 37.000 56.326 34.625 C 56.309 29.143,56.078 29.000,47.218 29.000 C 40.957 29.000,40.584 29.038,39.554 29.782 L 39.024 30.165 38.304 29.355 C 34.976 25.614,32.566 25.000,21.222 25.000 C 13.100 25.000,12.490 25.061,11.463 25.976 C 10.329 26.987,10.417 24.151,10.417 59.667 L 10.417 91.750 10.795 92.458 C 11.003 92.848,11.485 93.373,11.866 93.625 L 12.559 94.083 19.071 94.083 C 26.303 94.083,26.211 94.094,27.129 93.185 C 28.025 92.298,27.996 92.725,27.998 80.245 C 28.000 68.219,27.934 69.106,28.874 68.562 C 29.148 68.405,30.115 67.631,31.323 66.603 C 32.971 65.202,34.580 63.573,36.118 61.749 C 36.504 61.291,36.976 60.733,37.167 60.507 C 37.359 60.282,37.680 59.832,37.883 59.507 L 38.250 58.917 38.345 72.917 C 38.418 83.750,38.488 87.067,38.656 87.583 C 38.776 87.950,39.021 88.759,39.202 89.381 C 39.834 91.550,42.506 95.492,43.349 95.499 C 43.436 95.500,43.657 95.666,44.433 96.314 C 47.031 98.481,58.913 98.914,62.953 96.989 C 64.878 96.071,66.965 94.231,68.075 92.474 L 68.565 91.699 69.144 92.141 L 69.724 92.583 76.417 92.583 C 82.766 92.583,83.141 92.566,83.721 92.254 C 84.331 91.925,84.336 91.925,84.945 92.254 C 85.896 92.766,96.982 92.762,97.749 92.250 C 98.507 91.743,98.956 91.156,99.174 90.386 L 99.371 89.688 100.204 90.802 C 100.662 91.415,101.374 92.179,101.786 92.500 C 102.197 92.821,102.629 93.173,102.746 93.282 C 103.507 93.998,105.553 94.797,107.759 95.239 C 109.202 95.529,120.078 95.540,121.333 95.253 C 122.388 95.012,123.500 93.829,123.500 92.947 C 123.500 92.489,123.532 92.465,124.021 92.563 C 124.307 92.620,127.007 92.667,130.021 92.667 L 135.500 92.667 135.500 93.594 C 135.500 97.144,136.288 97.494,144.289 97.498 C 151.825 97.501,152.512 97.312,153.101 95.075 C 153.408 93.912,153.423 25.478,153.118 24.325 C 152.850 23.317,152.481 22.785,151.717 22.311 L 151.083 21.917 137.750 21.900 C 130.417 21.891,124.209 21.915,123.955 21.953 M199.455 21.953 C 197.701 22.217,197.176 23.697,197.171 28.394 L 197.167 31.872 196.708 31.739 C 195.925 31.512,185.745 31.457,184.083 31.671 C 179.527 32.258,176.211 34.585,174.270 38.558 C 173.577 39.978,173.410 40.493,172.987 42.521 C 172.737 43.717,172.862 84.777,173.117 85.417 C 173.227 85.692,173.480 86.438,173.680 87.076 C 174.279 88.988,175.896 91.421,177.284 92.500 C 177.697 92.821,178.129 93.173,178.246 93.282 C 179.007 93.998,181.053 94.797,183.259 95.239 C 184.702 95.529,195.578 95.540,196.833 95.253 C 197.888 95.012,199.000 93.829,199.000 92.947 C 199.000 92.489,199.032 92.465,199.521 92.563 C 199.807 92.620,202.507 92.667,205.521 92.667 L 211.000 92.667 211.000 93.594 C 211.000 97.144,211.788 97.494,219.789 97.498 C 228.872 97.501,228.800 97.556,228.839 90.583 C 228.850 88.567,228.903 87.029,228.955 87.167 C 229.700 89.112,232.989 92.134,235.321 93.016 C 238.531 94.230,247.211 94.395,250.667 93.308 C 255.000 91.946,258.168 88.063,259.008 83.083 C 259.285 81.440,259.442 81.425,259.551 83.030 C 259.602 83.793,259.761 85.767,259.903 87.417 C 260.729 96.977,260.012 96.333,269.833 96.333 C 276.765 96.333,277.367 96.261,278.319 95.309 C 279.030 94.598,279.068 94.470,279.435 91.583 C 279.734 89.230,279.706 89.274,280.781 89.504 C 281.327 89.621,283.971 89.667,288.352 89.634 C 297.308 89.567,296.822 89.904,297.432 83.333 C 297.856 78.766,298.527 71.691,298.918 67.667 C 299.065 66.154,299.290 63.792,299.418 62.417 C 299.706 59.327,300.162 54.641,300.328 53.083 C 300.395 52.442,300.462 60.592,300.476 71.195 C 300.504 93.879,300.313 92.153,302.887 92.917 C 304.167 93.297,317.375 93.284,318.678 92.901 C 319.605 92.628,320.873 92.015,320.972 91.792 C 321.003 91.723,321.119 91.667,321.230 91.667 C 321.341 91.667,321.579 91.552,321.758 91.411 C 321.937 91.271,322.608 90.778,323.250 90.317 C 326.342 88.095,328.852 84.695,330.188 80.917 L 330.660 79.583 330.667 84.333 C 330.677 90.771,331.036 91.800,333.370 92.081 C 335.605 92.350,354.556 92.096,355.239 91.787 C 356.548 91.196,357.167 89.942,357.167 87.878 C 357.167 87.188,357.189 87.152,357.542 87.280 C 358.034 87.459,370.453 87.458,371.022 87.279 C 371.427 87.151,371.467 87.183,371.545 87.695 C 371.892 89.979,372.582 92.000,373.015 92.000 C 373.085 92.000,373.242 92.097,373.363 92.215 C 373.873 92.711,375.348 92.833,380.804 92.829 C 387.490 92.824,388.412 92.660,389.131 91.344 C 389.746 90.220,389.733 89.882,388.917 85.833 C 388.639 84.457,388.196 82.230,387.923 80.833 C 387.806 80.237,387.241 77.462,386.668 74.667 C 386.095 71.871,385.530 69.096,385.412 68.500 C 385.295 67.904,385.080 66.817,384.936 66.083 C 384.791 65.350,384.454 63.668,384.187 62.346 L 383.701 59.942 384.140 59.262 C 384.382 58.889,384.623 58.546,384.676 58.500 C 384.729 58.454,385.166 57.742,385.647 56.917 C 386.129 56.092,386.611 55.267,386.720 55.083 C 386.977 54.648,387.094 39.710,386.849 38.543 C 386.399 36.392,386.308 36.030,386.049 35.333 C 384.244 30.490,380.273 27.393,374.946 26.676 C 372.855 26.394,359.232 26.444,358.105 26.737 C 357.164 26.982,356.333 27.427,356.333 27.686 C 356.333 27.916,355.937 27.860,355.317 27.542 C 354.794 27.273,353.907 27.250,343.917 27.250 L 333.083 27.250 332.302 27.635 C 331.180 28.188,330.782 29.069,330.695 31.194 L 330.629 32.804 329.856 31.677 C 327.968 28.923,325.952 27.444,322.974 26.630 C 321.603 26.255,321.451 26.250,312.229 26.250 L 302.875 26.250 302.666 25.434 C 302.431 24.516,301.580 23.559,300.860 23.402 C 300.616 23.349,300.199 23.237,299.933 23.153 C 299.102 22.890,288.999 22.961,287.938 23.237 C 285.899 23.769,285.208 25.082,285.170 28.500 C 285.167 28.719,284.411 28.744,279.167 28.699 C 274.297 28.657,272.986 28.694,272.207 28.893 C 271.367 29.109,271.135 29.109,270.332 28.897 C 268.667 28.458,257.810 28.638,256.830 29.121 C 255.406 29.823,255.105 30.830,255.353 34.054 C 255.544 36.543,255.525 36.687,255.058 36.201 C 253.810 34.902,251.680 33.826,249.250 33.267 C 247.583 32.884,239.265 32.881,237.479 33.262 C 233.958 34.015,230.842 36.330,229.182 39.428 L 228.833 40.078 228.826 32.581 C 228.817 23.613,228.764 23.272,227.217 22.311 L 226.583 21.917 213.250 21.900 C 205.917 21.891,199.709 21.915,199.455 21.953 M136.333 38.250 L 136.333 51.667 137.500 51.667 L 138.667 51.667 138.667 38.250 L 138.667 24.833 144.417 24.833 L 150.167 24.833 150.167 59.583 L 150.167 94.333 144.417 94.333 L 138.668 94.333 138.626 77.875 L 138.583 61.417 137.458 61.367 L 136.333 61.318 136.333 75.492 L 136.333 89.667 130.500 89.667 L 124.667 89.667 124.667 57.361 C 124.667 39.593,124.717 25.006,124.778 24.944 C 124.839 24.883,127.464 24.833,130.611 24.833 L 136.333 24.833 136.333 38.250 M211.833 38.250 L 211.833 51.667 213.000 51.667 L 214.167 51.667 214.167 38.250 L 214.167 24.833 219.917 24.833 L 225.667 24.833 225.667 59.583 L 225.667 94.333 219.917 94.333 L 214.168 94.333 214.126 77.875 L 214.083 61.417 212.958 61.367 L 211.833 61.318 211.833 75.492 L 211.833 89.667 206.000 89.667 L 200.167 89.667 200.167 57.361 C 200.167 39.593,200.217 25.006,200.278 24.944 C 200.339 24.883,202.964 24.833,206.111 24.833 L 211.833 24.833 211.833 38.250 M299.753 26.625 C 299.713 26.877,299.603 27.908,299.507 28.917 C 299.412 29.925,299.142 32.775,298.908 35.250 C 298.674 37.725,298.374 40.875,298.241 42.250 C 298.109 43.625,297.923 45.575,297.828 46.583 C 297.733 47.592,297.507 49.954,297.326 51.833 C 296.953 55.712,296.099 64.682,295.748 68.417 C 295.321 72.959,294.996 76.384,294.751 78.917 C 294.619 80.292,294.433 82.279,294.338 83.333 C 294.243 84.387,294.122 85.581,294.069 85.984 L 293.972 86.719 287.635 86.620 C 284.150 86.565,281.270 86.492,281.236 86.458 C 281.201 86.424,280.629 83.311,279.965 79.542 C 279.300 75.772,278.739 72.705,278.719 72.726 C 278.661 72.784,278.378 74.829,278.094 77.250 C 277.567 81.735,277.162 85.127,277.001 86.417 C 276.910 87.150,276.721 88.725,276.581 89.917 C 276.442 91.108,276.288 92.327,276.240 92.625 L 276.152 93.167 269.829 93.167 L 263.506 93.167 263.430 92.792 C 263.388 92.585,263.275 91.367,263.178 90.083 C 263.081 88.800,262.892 86.475,262.758 84.917 C 262.225 78.728,262.003 76.120,261.757 73.167 C 261.616 71.471,261.461 69.671,261.413 69.167 C 261.365 68.662,260.655 60.337,259.835 50.667 C 259.015 40.996,258.303 32.802,258.253 32.458 L 258.163 31.833 263.884 31.833 L 269.606 31.833 269.808 35.542 C 269.919 37.581,270.117 41.125,270.249 43.417 C 270.380 45.708,270.602 49.683,270.742 52.250 C 270.881 54.817,271.050 57.442,271.116 58.083 L 271.236 59.250 271.353 57.500 C 271.462 55.878,271.571 54.175,272.252 43.500 C 272.390 41.346,272.576 38.383,272.665 36.917 C 272.755 35.450,272.873 33.706,272.928 33.042 L 273.028 31.833 278.764 31.833 C 284.115 31.833,284.500 31.853,284.502 32.125 C 284.503 32.285,284.612 34.404,284.744 36.833 C 285.063 42.689,285.485 50.519,285.737 55.250 C 285.849 57.358,285.983 58.971,286.036 58.833 C 286.088 58.696,286.643 51.290,287.268 42.375 L 288.404 26.167 294.115 26.167 L 299.825 26.167 299.753 26.625 M30.991 28.425 C 34.490 29.249,37.356 32.135,38.519 36.003 C 38.878 37.199,38.896 37.556,38.958 44.667 L 39.021 52.083 37.896 53.963 C 34.941 58.899,30.873 63.372,26.555 66.432 L 25.000 67.535 25.000 79.351 L 25.000 91.167 19.250 91.167 L 13.500 91.167 13.500 59.667 L 13.500 28.167 21.708 28.169 C 28.463 28.171,30.107 28.216,30.991 28.425 M322.244 29.589 C 325.003 30.307,327.319 32.616,328.517 35.843 L 328.916 36.917 329.002 54.333 C 329.071 68.074,329.043 72.067,328.873 73.250 C 327.691 81.468,325.043 85.882,319.240 89.306 L 318.064 90.000 310.782 90.000 L 303.500 90.000 303.500 59.667 L 303.500 29.333 312.382 29.333 C 319.823 29.333,321.422 29.375,322.244 29.589 M375.991 29.925 C 379.543 30.762,382.497 33.795,383.612 37.750 C 383.852 38.602,383.904 39.839,383.959 46.107 L 384.024 53.463 383.600 54.301 C 383.366 54.762,382.559 56.060,381.807 57.185 L 380.440 59.231 381.218 63.074 C 381.646 65.187,382.635 70.067,383.416 73.917 C 384.196 77.767,385.234 82.885,385.721 85.292 L 386.608 89.667 380.815 89.667 C 375.440 89.667,375.017 89.646,374.941 89.375 C 374.897 89.215,373.942 84.451,372.821 78.788 C 370.796 68.563,370.779 68.495,370.433 68.725 C 370.087 68.955,370.083 69.048,370.040 76.729 L 369.997 84.500 364.248 84.500 L 358.500 84.500 358.500 57.083 L 358.500 29.667 366.708 29.669 C 373.463 29.671,375.107 29.716,375.991 29.925 M96.333 59.752 L 96.333 89.672 91.379 89.627 L 86.425 89.583 86.152 88.500 C 86.001 87.904,85.759 86.892,85.613 86.250 C 85.467 85.608,85.126 84.146,84.855 83.000 C 84.583 81.854,83.924 79.020,83.389 76.702 L 82.417 72.487 82.374 81.077 L 82.330 89.667 76.582 89.667 L 70.833 89.667 70.833 62.167 L 70.833 34.667 75.670 34.667 L 80.507 34.667 80.665 35.042 C 80.751 35.248,81.239 37.367,81.750 39.750 C 82.260 42.133,83.106 46.069,83.630 48.495 L 84.583 52.907 84.626 41.370 L 84.669 29.833 90.501 29.833 L 96.333 29.833 96.333 59.752 M354.000 35.083 L 354.000 39.833 349.667 39.833 L 345.333 39.833 345.333 43.500 L 345.333 47.167 349.667 47.167 L 354.000 47.167 354.000 52.000 L 354.000 56.833 349.667 56.833 L 345.333 56.833 345.333 68.083 L 345.333 79.333 349.667 79.333 L 354.000 79.333 354.000 84.140 L 354.000 88.946 347.625 89.056 C 344.119 89.117,339.544 89.166,337.458 89.166 L 333.667 89.167 333.667 59.750 L 333.667 30.333 343.833 30.333 L 354.000 30.333 354.000 35.083 M53.167 58.750 L 53.167 85.333 54.333 85.333 L 55.500 85.333 55.500 62.750 L 55.500 40.167 61.336 40.167 L 67.172 40.167 67.128 63.625 L 67.083 87.083 66.625 88.380 C 65.444 91.715,62.837 94.199,59.867 94.816 C 58.696 95.060,49.971 95.060,48.800 94.816 C 45.843 94.202,43.252 91.737,41.986 88.333 L 41.583 87.250 41.538 59.708 L 41.493 32.167 47.330 32.167 L 53.167 32.167 53.167 58.750 M120.667 39.500 L 120.667 44.333 116.333 44.333 L 112.000 44.333 112.000 63.500 L 112.000 82.667 116.333 82.667 L 120.667 82.667 120.667 87.509 L 120.667 92.351 114.042 92.295 L 107.417 92.240 106.390 91.805 C 103.778 90.698,101.909 88.636,100.878 85.721 L 100.417 84.417 100.365 64.333 C 100.305 40.523,100.230 41.473,102.411 38.416 C 104.752 35.135,106.167 34.700,114.542 34.681 L 120.667 34.667 120.667 39.500 M196.167 39.500 L 196.167 44.333 191.833 44.333 L 187.500 44.333 187.500 63.500 L 187.500 82.667 191.833 82.667 L 196.167 82.667 196.167 87.509 L 196.167 92.351 189.542 92.295 L 182.917 92.240 181.890 91.805 C 179.278 90.698,177.409 88.636,176.378 85.721 L 175.917 84.417 175.865 64.333 C 175.805 40.523,175.730 41.473,177.911 38.416 C 180.252 35.135,181.667 34.700,190.042 34.681 L 196.167 34.667 196.167 39.500 M249.695 36.509 C 252.648 37.504,254.987 40.202,255.837 43.592 C 256.166 44.904,256.173 45.351,256.128 63.925 L 256.083 82.917 255.625 84.213 C 254.453 87.523,252.115 89.801,249.090 90.578 C 247.916 90.880,239.493 90.947,237.981 90.667 C 234.287 89.982,231.213 86.462,230.665 82.289 C 230.322 79.683,230.531 44.470,230.897 43.250 C 231.856 40.043,234.157 37.514,236.996 36.546 C 238.610 35.996,248.089 35.968,249.695 36.509 M25.000 45.781 L 25.000 53.896 25.519 53.406 C 25.805 53.137,26.405 52.399,26.852 51.766 L 27.667 50.614 27.667 44.141 L 27.667 37.667 26.333 37.667 L 25.000 37.667 25.000 45.781 M315.170 59.625 L 315.173 80.250 315.663 79.470 C 316.282 78.484,316.922 76.968,317.286 75.626 C 317.542 74.683,317.574 72.888,317.623 56.792 L 317.678 39.000 316.422 39.000 L 315.167 39.000 315.170 59.625 M370.000 47.281 L 370.000 55.396 370.519 54.906 C 370.805 54.637,371.405 53.899,371.852 53.266 L 372.667 52.114 372.667 45.641 L 372.667 39.167 371.333 39.167 L 370.000 39.167 370.000 47.281 M355.500 43.566 L 355.500 44.465 354.875 44.285 C 354.531 44.186,352.956 44.078,351.375 44.045 L 348.500 43.985 348.500 43.493 L 348.500 43.000 351.458 42.997 C 353.085 42.996,354.529 42.922,354.667 42.833 C 355.284 42.435,355.500 42.625,355.500 43.566 M242.167 63.417 L 242.167 81.167 243.417 81.167 L 244.667 81.167 244.667 63.417 L 244.667 45.667 243.417 45.667 L 242.167 45.667 242.167 63.417 M121.667 63.496 L 121.667 79.825 121.239 79.663 C 121.004 79.573,119.504 79.500,117.906 79.500 L 115.000 79.500 115.000 63.500 L 115.000 47.500 117.792 47.488 C 119.327 47.482,120.733 47.412,120.917 47.333 C 121.100 47.255,121.344 47.185,121.458 47.178 C 121.624 47.169,121.667 50.537,121.667 63.496 M197.167 63.496 L 197.167 79.825 196.739 79.663 C 196.504 79.573,195.004 79.500,193.406 79.500 L 190.500 79.500 190.500 63.500 L 190.500 47.500 193.292 47.488 C 194.827 47.482,196.233 47.412,196.417 47.333 C 196.600 47.255,196.844 47.185,196.958 47.178 C 197.124 47.169,197.167 50.537,197.167 63.496 M355.500 68.101 C 355.500 76.234,355.484 76.695,355.208 76.566 C 355.048 76.491,353.425 76.402,351.601 76.369 L 348.286 76.308 348.392 74.946 C 348.450 74.196,348.498 70.527,348.499 66.792 L 348.500 60.000 351.125 59.993 C 352.832 59.988,354.042 59.904,354.583 59.754 C 355.042 59.627,355.435 59.517,355.458 59.511 C 355.481 59.505,355.500 63.371,355.500 68.101 " stroke="none" fill="#040404" fill-rule="evenodd"></path><path id="path2" d="M124.778 24.944 C 124.717 25.006,124.667 35.018,124.667 47.194 L 124.667 69.333 130.500 69.333 L 136.333 69.333 136.333 65.326 L 136.333 61.318 137.458 61.367 L 138.583 61.417 138.628 65.375 L 138.673 69.333 144.420 69.333 L 150.167 69.333 150.167 47.083 L 150.167 24.833 144.417 24.833 L 138.667 24.833 138.667 38.250 L 138.667 51.667 137.500 51.667 L 136.333 51.667 136.333 38.250 L 136.333 24.833 130.611 24.833 C 127.464 24.833,124.839 24.883,124.778 24.944 M200.278 24.944 C 200.217 25.006,200.167 35.018,200.167 47.194 L 200.167 69.333 206.000 69.333 L 211.833 69.333 211.833 65.326 L 211.833 61.318 212.958 61.367 L 214.083 61.417 214.128 65.375 L 214.173 69.333 219.920 69.333 L 225.667 69.333 225.667 47.083 L 225.667 24.833 219.917 24.833 L 214.167 24.833 214.167 38.250 L 214.167 51.667 213.000 51.667 L 211.833 51.667 211.833 38.250 L 211.833 24.833 206.111 24.833 C 202.964 24.833,200.339 24.883,200.278 24.944 M287.268 42.375 C 286.643 51.290,286.088 58.696,286.036 58.833 C 285.945 59.075,285.836 57.333,285.263 46.479 C 285.114 43.671,284.883 39.359,284.748 36.895 C 284.614 34.432,284.503 32.285,284.502 32.125 C 284.500 31.853,284.115 31.833,278.764 31.833 L 273.028 31.833 272.928 33.042 C 272.873 33.706,272.755 35.450,272.665 36.917 C 272.438 40.637,271.876 49.518,271.581 54.048 C 271.445 56.137,271.333 58.156,271.333 58.534 C 271.333 58.913,271.295 59.184,271.249 59.138 C 271.132 59.021,270.456 47.990,269.803 35.542 L 269.609 31.833 263.912 31.833 L 258.216 31.833 258.289 32.625 C 258.329 33.060,259.052 41.479,259.895 51.333 L 261.427 69.250 278.547 69.292 C 287.963 69.316,295.667 69.295,295.667 69.247 C 295.667 69.199,295.967 66.030,296.333 62.205 C 296.700 58.380,297.187 53.262,297.416 50.833 C 297.645 48.404,297.909 45.667,298.003 44.750 C 298.196 42.861,299.451 29.654,299.594 28.000 C 299.645 27.404,299.722 26.748,299.763 26.542 L 299.840 26.167 294.122 26.167 L 288.404 26.167 287.268 42.375 M13.500 48.750 L 13.500 69.333 19.250 69.333 L 25.000 69.333 25.000 68.434 L 25.000 67.535 26.555 66.432 C 30.855 63.385,34.960 58.867,37.914 53.932 L 39.021 52.083 38.958 44.667 C 38.876 35.173,38.609 34.097,35.587 31.082 C 32.792 28.292,32.220 28.172,21.708 28.169 L 13.500 28.167 13.500 48.750 M303.500 49.333 L 303.500 69.333 309.333 69.333 L 315.167 69.333 315.167 54.167 L 315.167 39.000 316.417 39.000 L 317.667 39.000 317.667 54.167 L 317.667 69.333 323.337 69.333 L 329.008 69.333 328.962 53.125 L 328.917 36.917 328.518 35.843 C 327.325 32.634,324.989 30.304,322.247 29.590 C 321.421 29.375,319.836 29.333,312.382 29.333 L 303.500 29.333 303.500 49.333 M358.500 49.500 L 358.500 69.333 364.159 69.333 L 369.818 69.333 370.277 68.875 L 370.735 68.417 370.833 68.833 L 370.932 69.250 376.734 69.294 C 381.352 69.329,382.522 69.295,382.462 69.127 C 382.420 69.011,381.948 66.738,381.413 64.074 L 380.439 59.232 381.807 57.186 C 382.559 56.060,383.366 54.762,383.600 54.301 L 384.024 53.463 383.959 46.107 C 383.886 37.863,383.890 37.893,382.637 35.335 C 381.734 33.491,379.811 31.518,378.124 30.705 C 376.033 29.697,375.753 29.672,366.708 29.669 L 358.500 29.667 358.500 49.500 M84.626 41.375 L 84.583 52.917 83.884 49.667 C 83.500 47.879,82.653 43.942,82.003 40.917 C 81.353 37.892,80.750 35.248,80.664 35.042 L 80.507 34.667 75.670 34.667 L 70.833 34.667 70.833 52.000 L 70.833 69.333 83.583 69.333 L 96.333 69.333 96.333 49.583 L 96.333 29.833 90.501 29.833 L 84.669 29.833 84.626 41.375 M333.667 49.833 L 333.667 69.333 339.500 69.333 L 345.333 69.333 345.333 63.083 L 345.333 56.833 349.667 56.833 L 354.000 56.833 354.000 52.000 L 354.000 47.167 349.667 47.167 L 345.333 47.167 345.333 43.500 L 345.333 39.833 349.667 39.833 L 354.000 39.833 354.000 35.083 L 354.000 30.333 343.833 30.333 L 333.667 30.333 333.667 49.833 M41.500 50.750 L 41.500 69.333 47.333 69.333 L 53.167 69.333 53.167 50.750 L 53.167 32.167 47.333 32.167 L 41.500 32.167 41.500 50.750 M107.462 34.926 C 104.065 35.749,101.385 38.726,100.594 42.557 C 100.371 43.638,100.333 45.651,100.333 56.576 L 100.333 69.333 106.167 69.333 L 112.000 69.333 112.000 56.833 L 112.000 44.333 116.333 44.333 L 120.667 44.333 120.667 39.500 L 120.667 34.667 114.542 34.681 C 109.925 34.691,108.182 34.751,107.462 34.926 M182.962 34.926 C 179.565 35.749,176.885 38.726,176.094 42.557 C 175.871 43.638,175.833 45.651,175.833 56.576 L 175.833 69.333 181.667 69.333 L 187.500 69.333 187.500 56.833 L 187.500 44.333 191.833 44.333 L 196.167 44.333 196.167 39.500 L 196.167 34.667 190.042 34.681 C 185.425 34.691,183.682 34.751,182.962 34.926 M236.996 36.542 C 234.765 37.311,232.820 39.051,231.735 41.249 C 230.551 43.646,230.608 42.902,230.543 56.792 L 230.484 69.333 236.326 69.333 L 242.167 69.333 242.167 57.500 L 242.167 45.667 243.417 45.667 L 244.667 45.667 244.667 57.500 L 244.667 69.333 250.417 69.333 L 256.167 69.333 256.167 57.110 C 256.167 45.433,256.152 44.828,255.833 43.568 C 255.075 40.573,253.246 38.218,250.696 36.954 L 249.276 36.250 243.680 36.208 C 238.253 36.168,238.050 36.178,236.996 36.542 M27.667 44.141 L 27.667 50.614 26.852 51.766 C 26.405 52.399,25.805 53.137,25.519 53.406 L 25.000 53.896 25.000 45.781 L 25.000 37.667 26.333 37.667 L 27.667 37.667 27.667 44.141 M372.667 45.641 L 372.667 52.114 371.852 53.266 C 371.405 53.899,370.805 54.637,370.519 54.906 L 370.000 55.396 370.000 47.281 L 370.000 39.167 371.333 39.167 L 372.667 39.167 372.667 45.641 M55.500 54.750 L 55.500 69.333 61.333 69.333 L 67.167 69.333 67.167 54.750 L 67.167 40.167 61.333 40.167 L 55.500 40.167 55.500 54.750 " stroke="none" fill="#fbf304" fill-rule="evenodd"></path></g></svg>